<svg width="146" height="42" viewBox="0 0 146 42" fill="none" xmlns="http://www.w3.org/2000/svg">
<path d="M15.75 42C24.4492 42 31.5 36.75 31.5 27.5625C31.5 23.625 30.1875 17.0625 24.9375 11.8125C25.5938 15.75 21.6562 17.0625 21.6562 17.0625C23.625 10.5 18.375 1.3125 10.5 0C11.4371 5.25 11.8125 10.5 5.25 15.75C1.96875 18.375 0 22.9136 0 27.5625C0 36.75 7.05075 42 15.75 42ZM15.75 39.375C11.4004 39.375 7.875 36.75 7.875 32.1562C7.875 30.1875 8.53125 26.9062 11.1562 24.2812C10.8281 26.25 13.125 27.5625 13.125 27.5625C12.1406 24.2812 14.4375 19.0312 18.375 18.375C17.9051 21 17.7188 23.625 21 26.25C22.6406 27.5625 23.625 29.8305 23.625 32.1562C23.625 36.75 20.0996 39.375 15.75 39.375Z" fill="black"/>
<path d="M46.825 20.55H55.55V23.3H46.825V20.55ZM47.1 30H43.85V12.5H56.625V15.225H47.1V30ZM59.468 30V16.65H62.593V30H59.468ZM61.043 14.45C60.4596 14.45 59.9763 14.2667 59.593 13.9C59.2263 13.5333 59.043 13.0917 59.043 12.575C59.043 12.0417 59.2263 11.6 59.593 11.25C59.9763 10.8833 60.4596 10.7 61.043 10.7C61.6263 10.7 62.1013 10.875 62.468 11.225C62.8513 11.5583 63.043 11.9833 63.043 12.5C63.043 13.05 62.8596 13.5167 62.493 13.9C62.1263 14.2667 61.643 14.45 61.043 14.45ZM66.6945 30V16.65H69.6695V20.325L69.3195 19.25C69.7195 18.35 70.3445 17.6667 71.1945 17.2C72.0612 16.7333 73.1362 16.5 74.4195 16.5V19.475C74.2862 19.4417 74.1612 19.425 74.0445 19.425C73.9279 19.4083 73.8112 19.4 73.6945 19.4C72.5112 19.4 71.5695 19.75 70.8695 20.45C70.1695 21.1333 69.8195 22.1583 69.8195 23.525V30H66.6945ZM83.2234 30.175C81.7401 30.175 80.4401 29.8833 79.3234 29.3C78.2234 28.7 77.3651 27.8833 76.7484 26.85C76.1484 25.8167 75.8484 24.6417 75.8484 23.325C75.8484 21.9917 76.1401 20.8167 76.7234 19.8C77.3234 18.7667 78.1401 17.9583 79.1734 17.375C80.2234 16.7917 81.4151 16.5 82.7484 16.5C84.0484 16.5 85.2068 16.7833 86.2234 17.35C87.2401 17.9167 88.0401 18.7167 88.6234 19.75C89.2068 20.7833 89.4984 22 89.4984 23.4C89.4984 23.5333 89.4901 23.6833 89.4734 23.85C89.4734 24.0167 89.4651 24.175 89.4484 24.325H78.3234V22.25H87.7984L86.5734 22.9C86.5901 22.1333 86.4318 21.4583 86.0984 20.875C85.7651 20.2917 85.3068 19.8333 84.7234 19.5C84.1568 19.1667 83.4984 19 82.7484 19C81.9818 19 81.3068 19.1667 80.7234 19.5C80.1568 19.8333 79.7068 20.3 79.3734 20.9C79.0568 21.4833 78.8984 22.175 78.8984 22.975V23.475C78.8984 24.275 79.0818 24.9833 79.4484 25.6C79.8151 26.2167 80.3318 26.6917 80.9984 27.025C81.6651 27.3583 82.4318 27.525 83.2984 27.525C84.0484 27.525 84.7234 27.4083 85.3234 27.175C85.9234 26.9417 86.4568 26.575 86.9234 26.075L88.5984 28C87.9984 28.7 87.2401 29.2417 86.3234 29.625C85.4234 29.9917 84.3901 30.175 83.2234 30.175ZM106.809 30.175C105.676 30.175 104.668 29.925 103.784 29.425C102.901 28.925 102.201 28.175 101.684 27.175C101.184 26.1583 100.934 24.875 100.934 23.325C100.934 21.7583 101.193 20.475 101.709 19.475C102.243 18.475 102.951 17.7333 103.834 17.25C104.734 16.75 105.726 16.5 106.809 16.5C108.126 16.5 109.284 16.7833 110.284 17.35C111.301 17.9167 112.101 18.7083 112.684 19.725C113.284 20.7417 113.584 21.9417 113.584 23.325C113.584 24.7083 113.284 25.9083 112.684 26.925C112.101 27.9417 111.301 28.7417 110.284 29.325C109.284 29.8917 108.126 30.175 106.809 30.175ZM99.4094 30V11.45H102.534V19.75L102.284 23.3L102.384 26.85V30H99.4094ZM106.459 27.5C107.209 27.5 107.876 27.3333 108.459 27C109.059 26.6667 109.534 26.1833 109.884 25.55C110.234 24.9167 110.409 24.175 110.409 23.325C110.409 22.4583 110.234 21.7167 109.884 21.1C109.534 20.4667 109.059 19.9833 108.459 19.65C107.876 19.3167 107.209 19.15 106.459 19.15C105.709 19.15 105.034 19.3167 104.434 19.65C103.834 19.9833 103.359 20.4667 103.009 21.1C102.659 21.7167 102.484 22.4583 102.484 23.325C102.484 24.175 102.659 24.9167 103.009 25.55C103.359 26.1833 103.834 26.6667 104.434 27C105.034 27.3333 105.709 27.5 106.459 27.5ZM122.548 30.175C121.181 30.175 119.965 29.8833 118.898 29.3C117.831 28.7 116.99 27.8833 116.373 26.85C115.756 25.8167 115.448 24.6417 115.448 23.325C115.448 21.9917 115.756 20.8167 116.373 19.8C116.99 18.7667 117.831 17.9583 118.898 17.375C119.965 16.7917 121.181 16.5 122.548 16.5C123.931 16.5 125.156 16.7917 126.223 17.375C127.306 17.9583 128.148 18.7583 128.748 19.775C129.365 20.7917 129.673 21.975 129.673 23.325C129.673 24.6417 129.365 25.8167 128.748 26.85C128.148 27.8833 127.306 28.7 126.223 29.3C125.156 29.8833 123.931 30.175 122.548 30.175ZM122.548 27.5C123.315 27.5 123.998 27.3333 124.598 27C125.198 26.6667 125.665 26.1833 125.998 25.55C126.348 24.9167 126.523 24.175 126.523 23.325C126.523 22.4583 126.348 21.7167 125.998 21.1C125.665 20.4667 125.198 19.9833 124.598 19.65C123.998 19.3167 123.323 19.15 122.573 19.15C121.806 19.15 121.123 19.3167 120.523 19.65C119.94 19.9833 119.473 20.4667 119.123 21.1C118.773 21.7167 118.598 22.4583 118.598 23.325C118.598 24.175 118.773 24.9167 119.123 25.55C119.473 26.1833 119.94 26.6667 120.523 27C121.123 27.3333 121.798 27.5 122.548 27.5ZM130.397 30L136.272 22.35L136.222 24.025L130.622 16.65H134.097L138.022 21.9H136.697L140.647 16.65H144.022L138.372 24.025L138.397 22.35L144.247 30H140.722L136.597 24.425L137.897 24.6L133.847 30H130.397Z" fill="#161420"/>
</svg>
