<svg width="72" height="72" viewBox="0 0 72 72" fill="none" xmlns="http://www.w3.org/2000/svg">
<path fill-rule="evenodd" clip-rule="evenodd" d="M22.395 3.198C25.914 3.036 27.036 3 36 3C44.964 3 46.086 3.039 49.602 3.198C53.118 3.357 55.518 3.918 57.618 4.731C59.817 5.562 61.812 6.861 63.462 8.541C65.142 10.188 66.438 12.18 67.266 14.382C68.082 16.482 68.64 18.882 68.802 22.392C68.964 25.917 69 27.039 69 36C69 44.964 68.961 46.086 68.802 49.605C68.643 53.115 68.082 55.515 67.266 57.615C66.438 59.8173 65.1398 61.8126 63.462 63.462C61.812 65.142 59.817 66.438 57.618 67.266C55.518 68.082 53.118 68.64 49.608 68.802C46.086 68.964 44.964 69 36 69C27.036 69 25.914 68.961 22.395 68.802C18.885 68.643 16.485 68.082 14.385 67.266C12.1828 66.4379 10.1875 65.1398 8.538 63.462C6.85914 61.814 5.55994 59.8197 4.731 57.618C3.918 55.518 3.36 53.118 3.198 49.608C3.036 46.083 3 44.961 3 36C3 27.036 3.039 25.914 3.198 22.398C3.357 18.882 3.918 16.482 4.731 14.382C5.56117 12.1802 6.86136 10.1859 8.541 8.538C10.1881 6.8595 12.1814 5.56033 14.382 4.731C16.482 3.918 18.882 3.36 22.392 3.198H22.395ZM49.335 9.138C45.855 8.979 44.811 8.946 36 8.946C27.189 8.946 26.145 8.979 22.665 9.138C19.446 9.285 17.7 9.822 16.536 10.275C14.997 10.875 13.896 11.586 12.741 12.741C11.6461 13.8062 10.8035 15.1028 10.275 16.536C9.822 17.7 9.285 19.446 9.138 22.665C8.979 26.145 8.946 27.189 8.946 36C8.946 44.811 8.979 45.855 9.138 49.335C9.285 52.554 9.822 54.3 10.275 55.464C10.803 56.895 11.646 58.194 12.741 59.259C13.806 60.354 15.105 61.197 16.536 61.725C17.7 62.178 19.446 62.715 22.665 62.862C26.145 63.021 27.186 63.054 36 63.054C44.814 63.054 45.855 63.021 49.335 62.862C52.554 62.715 54.3 62.178 55.464 61.725C57.003 61.125 58.104 60.414 59.259 59.259C60.354 58.194 61.197 56.895 61.725 55.464C62.178 54.3 62.715 52.554 62.862 49.335C63.021 45.855 63.054 44.811 63.054 36C63.054 27.189 63.021 26.145 62.862 22.665C62.715 19.446 62.178 17.7 61.725 16.536C61.125 14.997 60.414 13.896 59.259 12.741C58.1938 11.6462 56.8971 10.8036 55.464 10.275C54.3 9.822 52.554 9.285 49.335 9.138ZM31.785 46.173C34.139 47.1529 36.7601 47.2851 39.2008 46.5472C41.6414 45.8092 43.7502 44.2467 45.1668 42.1267C46.5835 40.0067 47.2202 37.4606 46.9681 34.9233C46.7161 32.386 45.591 30.0149 43.785 28.215C42.6337 27.0644 41.2416 26.1834 39.709 25.6354C38.1764 25.0874 36.5413 24.8861 34.9215 25.0458C33.3017 25.2056 31.7375 25.7225 30.3414 26.5594C28.9454 27.3963 27.7522 28.5322 26.8479 29.8856C25.9436 31.2389 25.3506 32.7759 25.1115 34.3859C24.8725 35.9959 24.9935 37.6389 25.4656 39.1965C25.9378 40.7542 26.7494 42.1878 27.8422 43.3942C28.9349 44.6005 30.2815 45.5496 31.785 46.173ZM24.006 24.006C25.5811 22.4309 27.451 21.1815 29.5089 20.3291C31.5668 19.4767 33.7725 19.0379 36 19.0379C38.2275 19.0379 40.4332 19.4767 42.4911 20.3291C44.549 21.1815 46.4189 22.4309 47.994 24.006C49.5691 25.5811 50.8185 27.451 51.6709 29.5089C52.5233 31.5668 52.9621 33.7725 52.9621 36C52.9621 38.2275 52.5233 40.4332 51.6709 42.4911C50.8185 44.549 49.5691 46.4189 47.994 47.994C44.813 51.175 40.4986 52.9621 36 52.9621C31.5014 52.9621 27.187 51.175 24.006 47.994C20.825 44.813 19.0379 40.4986 19.0379 36C19.0379 31.5014 20.825 27.187 24.006 24.006ZM56.724 21.564C57.1143 21.1958 57.4268 20.753 57.6429 20.2619C57.859 19.7708 57.9744 19.2413 57.9823 18.7048C57.9901 18.1683 57.8902 17.6356 57.6884 17.1384C57.4867 16.6412 57.1873 16.1895 56.8079 15.8101C56.4285 15.4307 55.9768 15.1313 55.4796 14.9296C54.9824 14.7278 54.4497 14.6279 53.9132 14.6357C53.3767 14.6436 52.8472 14.759 52.3561 14.9751C51.865 15.1912 51.4222 15.5037 51.054 15.894C50.3379 16.6531 49.9459 17.6614 49.9611 18.7048C49.9763 19.7482 50.3976 20.7446 51.1355 21.4825C51.8734 22.2204 52.8698 22.6417 53.9132 22.6569C54.9566 22.6721 55.9649 22.2801 56.724 21.564Z" fill="black"/>
</svg>
