<svg width="76" height="61" viewBox="0 0 76 61" fill="none" xmlns="http://www.w3.org/2000/svg">
<path d="M75.5 7.23571C72.7419 8.45846 69.779 9.28463 66.6642 9.65806C69.8781 7.73404 72.2826 4.70585 73.429 1.13853C70.4094 2.93295 67.1047 4.19603 63.6584 4.87285C61.3409 2.39718 58.2713 0.756264 54.9261 0.204867C51.581 -0.346531 48.1474 0.222439 45.1586 1.82344C42.1698 3.42444 39.7928 5.9679 38.3969 9.05893C37.0009 12.15 36.664 15.6156 37.4385 18.9178C31.3201 18.6105 25.3347 17.0195 19.8707 14.248C14.4067 11.4765 9.58628 7.58655 5.72219 2.83054C4.40095 5.11079 3.64124 7.75455 3.64124 10.5702C3.63977 13.1049 4.26365 15.6007 5.45754 17.8363C6.65143 20.0719 8.37841 21.9781 10.4852 23.3858C8.04187 23.308 5.6524 22.6475 3.51572 21.4592V21.6574C3.51548 25.2125 4.74458 28.6581 6.99448 31.4096C9.24438 34.1612 12.3765 36.0492 15.8594 36.7533C13.5927 37.3671 11.2163 37.4575 8.90967 37.0177C9.89233 40.0766 11.8065 42.7515 14.3841 44.6679C16.9617 46.5843 20.0738 47.6463 23.2847 47.7051C17.8341 51.9861 11.1026 54.3082 4.17304 54.298C2.94555 54.2984 1.71909 54.2266 0.5 54.0832C7.53385 58.6079 15.7218 61.0093 24.0841 61C52.3916 61 67.8666 37.5432 67.8666 17.1994C67.8666 16.5385 67.85 15.8709 67.8203 15.21C70.8304 13.0321 73.4287 10.3352 75.4934 7.24563L75.5 7.23571Z" fill="black"/>
</svg>
