<svg width="74" height="52" viewBox="0 0 74 52" fill="none" xmlns="http://www.w3.org/2000/svg">
<path d="M73.5 45.5V6.5C73.5 2.90333 70.6246 0 67.0626 0H6.93739C3.37537 0 0.5 2.90333 0.5 6.5V45.5C0.5 49.0967 3.37537 52 6.93739 52H67.0626C70.6246 52 73.5 49.0967 73.5 45.5ZM67.878 6.02333C69.2942 7.45333 68.5218 8.92667 67.7493 9.66333L50.3254 25.7833L67.0626 43.3767C67.5776 43.9833 67.9209 44.9367 67.3201 45.5867C66.7622 46.28 65.4747 46.2367 64.9168 45.8033L46.1626 29.64L36.9785 38.09L27.8374 29.64L9.08319 45.8033C8.52528 46.2367 7.2378 46.28 6.67989 45.5867C6.07907 44.9367 6.4224 43.9833 6.93739 43.3767L23.6746 25.7833L6.25073 9.66333C5.47825 8.92667 4.70576 7.45333 6.12199 6.02333C7.53821 4.59333 8.99735 5.28667 10.199 6.32667L36.9785 28.1667L63.801 6.32667C65.0026 5.28667 66.4618 4.59333 67.878 6.02333Z" fill="black"/>
</svg>
